# xmcd
#
# Track frame offsets:
#	150
#	22749
#	50063
#	75218
#	98953
#	120816
#	141039
#	164398
#	185633
#	203682
#
# Disc length: 3006 seconds
#
# Revision: 0
# Processed by: cddbd v1.5.2PL0 Copyright (c) Steve Scherf et al.
# Submitted via: EZCDAudioConverter 2.1.7.1
#
DISCID=730bbc0a
DTITLE=Mo' Horizons - Ten Years Of... 2/2
DYEAR=1900
DGENRE=
TTITLE0=My Bombombomb [Flamingo Star Remix]
TTITLE1=Kikiribu [Bahama Soul Club Remix]
TTITLE2=Don't Bring Me Down
TTITLE3=Green Day [Una Mas Trio Remix]
TTITLE4=Tu Fiesta Personal [TM Juke Remix]
TTITLE5=Sunshine Today [Alan De Laniere Remix]
TTITLE6=Lovely Day Inside [Jazz Juice Remix]
TTITLE7=Ay Y N'Ama [DJ Day Remix]
TTITLE8=Insatiable [Mr. Confuse Accoustic Remix]
TTITLE9=You Know I Don't
EXTD=
EXTT0=
EXTT1=
EXTT2=
EXTT3=
EXTT4=
EXTT5=
EXTT6=
EXTT7=
EXTT8=
EXTT9=
PLAYORDER=
